<?xml version="1.0" encoding="iso-8859-1"?>
<!-- Uploaded to: SVG Repo, www.svgrepo.com, Generator: SVG Repo Mixer Tools -->
<svg fill="#000000" height="current" width="current" version="1.1" id="Layer_1" xmlns="http://www.w3.org/2000/svg" xmlns:xlink="http://www.w3.org/1999/xlink" 
	 viewBox="0 0 512 512" xml:space="preserve">
<g>
	<g>
		<circle cx="221.091" cy="244.364" r="11.636"/>
	</g>
</g>
<g>
	<g>
		<path d="M407.273,69.818V34.909C407.273,15.127,392.145,0,372.364,0H139.636c-19.782,0-34.909,15.127-34.909,34.909v116.364
			c0,68.655,46.545,129.164,112.873,146.618c16.291,4.655,26.764,18.618,26.764,33.745v133.818c0,12.8-10.473,23.273-23.273,23.273
			h-46.545c-6.982,0-11.636,4.655-11.636,11.636S167.564,512,174.545,512h46.545c13.964,0,26.764-5.818,34.909-16.291
			c8.145,9.309,20.945,16.291,34.909,16.291h46.545c6.982,0,11.636-4.655,11.636-11.636s-4.655-11.636-11.636-11.636h-46.545
			c-12.8,0-23.273-10.473-23.273-23.273V331.636c0-16.291,11.636-30.255,26.764-33.745
			c66.327-17.455,112.873-77.964,112.873-146.618V128c0-4.655-2.327-8.145-5.818-10.473c-29.091-17.455-75.636-17.455-104.727,0
			c-22.109,12.8-59.345,12.8-81.455,0c-13.964-8.145-32.582-12.8-52.364-12.8c-6.982,0-11.636,4.655-11.636,11.636
			S155.927,128,162.909,128c15.127,0,30.255,3.491,40.727,10.473c15.127,9.309,33.745,12.8,52.364,12.8s37.236-4.655,52.364-12.8
			c19.782-11.636,53.527-12.8,75.636-3.491v16.291c0,58.182-39.564,109.382-95.418,123.345
			c-13.964,3.491-24.436,11.636-32.582,22.109c-8.145-10.473-19.782-18.618-32.582-22.109C167.564,260.655,128,209.455,128,151.273
			V34.909c0-6.982,4.655-11.636,11.636-11.636h232.727c6.982,0,11.636,4.655,11.636,11.636v34.909H407.273z"/>
	</g>
</g>
<g>
	<g>
		<path d="M202.473,212.945c-12.8-10.473-20.945-24.436-25.6-40.727c-1.164-5.818-8.145-10.473-13.964-8.145
			c-5.818,1.164-10.473,8.145-8.145,13.964c5.818,19.782,16.291,38.4,32.582,52.364c1.164,1.164,4.655,2.327,6.982,2.327
			c3.491,0,6.982-1.164,9.309-3.491C208.291,224.582,207.127,217.6,202.473,212.945z"/>
	</g>
</g>
</svg>